<svg xmlns="http://www.w3.org/2000/svg" xmlns:xlink="http://www.w3.org/1999/xlink" version="1.1" x="0px" y="0px" viewBox="0 0 100 125" style="enable-background:new 0 0 100 100;" xml:space="preserve" fill="#ff1d83"><g><g><polygon points="5.2,66.6 48.9,90.2 48.9,62.4 5.2,38.7"/></g><g><polygon points="51.5,62.4 51.5,90.2 95.2,66.6 95.2,38.7   "/></g><g><path d="M85.2,31.9c0.4-0.7,0.6-1.4,0.6-2.2c0-3.8-5.3-6.8-11.8-6.8c-2.3,0-4.5,0.4-6.4,1.1l-6.1-2.8c0.2-0.5,0.3-1,0.3-1.5    c0-3.8-5.3-6.8-11.8-6.8s-11.8,3-11.8,6.8c0,0.5,0.1,1,0.3,1.5l-5.9,2.5c-1.7-0.5-3.6-0.8-5.6-0.8c-6.5,0-11.8,3-11.8,6.8    c0,0.5,0.1,0.9,0.2,1.4l-10,4.3l44.6,24.4l44.8-23.5L85.2,31.9z M39.8,23c2,2,5.9,3.4,10.2,3.4c4.4,0,8.2-1.4,10.2-3.4    c1,1,1.6,2.2,1.6,3.4c0,3.8-5.3,6.8-11.8,6.8c-6.5,0-11.8-3.1-11.8-6.8C38.3,25.2,38.8,24,39.8,23z M27,43.2    c-6.5,0-11.8-3.1-11.8-6.8c0-1.2,0.6-2.3,1.5-3.3c2,2.1,5.9,3.4,10.3,3.4c4.4,0,8.2-1.4,10.3-3.4c1,1,1.6,2.2,1.6,3.4    C38.9,40.2,33.6,43.2,27,43.2z M50,55.2c-6.5,0-11.8-3.1-11.8-6.8c0-1.3,0.6-2.5,1.8-3.5c2,2.1,5.9,3.6,10.4,3.6    c4.2,0,8-1.3,10-3.2c0.9,1,1.4,2.1,1.4,3.3C61.8,52.2,56.5,55.3,50,55.2z M74,43.3c-6.5,0-11.8-3.1-11.8-6.8    c0-1.2,0.6-2.4,1.6-3.4c2.1,2,5.8,3.4,10.2,3.4c4.3,0,8.1-1.3,10.2-3.3c1,1,1.6,2.2,1.6,3.5C85.8,40.3,80.5,43.4,74,43.3z"/></g></g></svg>
