<svg xmlns="http://www.w3.org/2000/svg" xmlns:xlink="http://www.w3.org/1999/xlink" version="1.1" x="0px" y="0px" viewBox="0 0 100 125" style="enable-background:new 0 0 100 100;" xml:space="preserve"><g><path fill="#ff1d83" d="M89.1,65.9c-2.2,0-4.5,0-6.7,0c-4.6,0-9.2,0-13.9,0c-0.4,0-1,0.1-1.2,0.4c-3.6,4-8.3,6-13.5,6.7c-6.6,1-12.9-0.2-18.5-4.1   c-1-0.7-1.9-1.7-2.9-2.5c-0.3-0.2-0.7-0.5-1.1-0.5c-6.6,0-13.2,0-19.8,0c-0.1,0-0.2,0-0.4,0.1c-0.3,1.4-0.8,2.7-2.3,3.4   c-2.5,1.1-5.2-0.8-5.2-3.7c0-4.8,0-9.6,0-14.4c0-2.3,0.1-4.7,0-7c-0.1-1.8,0.9-2.8,2.3-3.7c1.4-0.8,2.6-0.3,3.6,0.6   c0.8,0.7,1.6,0.7,2.5,0.6c4.6-0.7,9.1-1.2,13.7-1.9c0.3,0,0.7-0.5,0.9-0.8c0.7-1.2,1.1-2.6,1.9-3.7c0.7-1,1.1-2,1.4-3.1   c1.3-5.3,3.7-9.9,8.2-13.2c2.5-1.8,5.3-2.8,8.3-3.1c3.6-0.3,7.3-0.4,10.8,0.9c5.3,2,8.7,5.9,10.9,11c0.3,0.6,0.5,1.3,0.7,2   c0.7,2.4,1.2,4.8,3,6.8c0.4,0.5,0.7,1.2,0.8,1.9c0.1,0.9,0.6,1.2,1.5,1.3c4.9,0.6,9.8,1.3,14.6,1.9c0.5,0.1,1-0.1,1.4-0.4   c2.5-1.7,2.8-1.6,5-0.2c0.9,0.6,1.4,1.6,1.4,2.7c0,7.3,0,14.6,0,21.9c0,2-1.3,3.5-3.2,3.8c-1.8,0.3-3.4-0.8-4-2.7   C89.2,66.5,89.2,66.2,89.1,65.9z M66.5,50.3c-0.1-6.9-1-13.4-2.6-19.8c-0.7-2.6-2-5-3.9-6.9c-1.4-1.3-2.3-1.4-4.1-0.6   c-4.1,1.7-8.2,1.7-12.3,0c-1.7-0.7-2.9-0.6-4.1,0.8c-1.9,2.3-3.7,4.7-4.2,7.8c-0.7,4.4-1.6,8.7-2,13.1c-0.3,3.8-0.5,7.7,0.1,11.4   c1.4,9.7,10.9,14.1,18,13.2c6.5-0.8,11.5-4,14-10.3C66.6,55.9,66.4,53,66.5,50.3z M9.7,54.8c0-3.5,0-7.1,0-10.6   c0-1.4-1.2-2.7-2.3-2.7s-2.3,1.4-2.3,2.7c0,7.1,0,14.1,0,21.2c0,1.8,0.9,2.8,2.4,2.8c1.4,0,2.3-1.1,2.3-2.8   C9.7,61.8,9.7,58.3,9.7,54.8z M95.2,54.8c0-3.5,0-7.1,0-10.6c0-1.4-1.2-2.7-2.3-2.7c-1.1,0-2.3,1.4-2.3,2.7c0,7.1,0,14.1,0,21.2   c0,1.8,0.9,2.8,2.4,2.8c1.4,0,2.3-1.1,2.3-2.8C95.2,61.8,95.2,58.3,95.2,54.8z M19.4,43c-1.7,0.2-3.3,0.4-4.8,0.7   c-0.2,0-0.5,0.2-0.6,0.4c-0.3,1.4-0.6,2.8-0.9,4.3c1.7-0.2,3.3-0.4,4.9-0.7c0.2,0,0.5-0.3,0.5-0.5C18.8,45.9,19.1,44.6,19.4,43z    M80.9,43c0.3,1.5,0.5,2.9,0.8,4.2c0.1,0.2,0.3,0.6,0.6,0.6c1.6,0.3,3.1,0.4,4.9,0.7c-0.3-1.6-0.6-3-0.9-4.4c0-0.2-0.4-0.4-0.6-0.4   C84.2,43.4,82.6,43.2,80.9,43z M71.6,48.7c-0.3,1.2,0.2,1.4,1.1,1.5c3.2,0.4,6.4,0.9,9.6,1.3c2.3,0.3,4.6,0.6,6.9,0.9   c0-0.5,0-0.9,0-1.3C83.2,50.3,77.4,49.5,71.6,48.7z M28,48.8c-5.7,0.8-11.3,1.5-16.9,2.3c0,0.5,0,0.9,0,1.3c0.5,0,0.9-0.1,1.3-0.1   c4.9-0.7,9.7-1.4,14.6-2C28.1,50.2,28.2,49.8,28,48.8z M76.8,47c-0.2-0.8-0.3-1.4-0.4-2.1c-0.5-2.8-0.5-2.8-3.3-3c0,0-0.1,0,0,0   c-0.6,0.9-1.1,1.8-1.6,2.6c-0.4,0.7-0.2,1.7,0.5,1.8C73.5,46.6,75.1,46.8,76.8,47z M23.5,47c1.5-0.2,2.8-0.4,4.1-0.5   c0.2,0,0.3,0,0.5-0.1c0.2-0.2,0.6-0.5,0.6-0.6c-0.7-1.3-1.2-2.7-2.1-3.7c-0.6-0.7-2,0.3-2.2,1.3C24,44.6,23.8,45.7,23.5,47z"/><path fill="#ff1d83" d="M46.1,35.4c-0.5,1.2-0.7,2.4-1.4,3.4c-0.8,1.3-2.2,1.2-3.2,0.1c-1.4-1.7-1.4-5.2,0-6.9c1-1.2,2.4-1.2,3.2,0.1   C45.4,33.1,45.7,34.3,46.1,35.4z"/><path fill="#ff1d83" d="M59.6,35.5c-0.5,1.2-0.7,2.3-1.3,3.3c-0.8,1.4-2.3,1.3-3.3,0.1c-1.4-1.7-1.4-5.1,0-6.8c1-1.2,2.5-1.3,3.3,0   C58.9,33.1,59.2,34.3,59.6,35.5z"/><path fill="#ff1d83" d="M47.7,30.1c-0.5-0.2-1.1-0.5-1.6-0.7c-0.9-0.4-1.8-0.9-2.7-1.3c-1.5-0.5-2.9-0.4-4.2,0.8c-0.4,0.4-1.1,0.4-1.6,0.6   c0-0.6-0.2-1.3,0-1.9c0.8-2.5,2.7-3.3,5.1-2.3c2.2,0.9,4.2,2.2,5.3,4.4C47.8,29.8,47.8,30,47.7,30.1z"/><path fill="#ff1d83" d="M52.2,30.6c0.6-0.8,1.2-1.7,1.9-2.2c1.2-0.9,2.5-1.6,3.8-2.2c2.3-1,4.9,0.7,5,3.3c0,0.3-0.1,0.7-0.2,0.8   c-0.3,0.1-0.6,0-1-0.1c-0.1,0-0.2-0.1-0.3-0.2c-2.3-2.2-4.6-1.4-6.9-0.1c-0.7,0.4-1.4,0.7-2.1,1C52.4,30.9,52.3,30.8,52.2,30.6z"/></g></svg>
